<svg xmlns="http://www.w3.org/2000/svg" viewBox="0 0 1024 1024"><defs><radialGradient id="bg"><stop stop-color="#3b0000"/><stop offset=".55" stop-color="#100000"/><stop offset="1"/></radialGradient><linearGradient id="r" x2="0" y2="1"><stop stop-color="#fff"/><stop offset=".48" stop-color="#eee"/><stop offset="1" stop-color="#c9c9c9"/></linearGradient><linearGradient id="edge" x2="1" y2="1"><stop stop-color="#ff5a00"/><stop offset=".45" stop-color="#ff1200"/><stop offset="1" stop-color="#6d0000"/></linearGradient><filter id="glow"><feGaussianBlur stdDeviation="18" result="b"/><feMerge><feMergeNode in="b"/><feMergeNode in="SourceGraphic"/></feMerge></filter></defs><rect width="1024" height="1024" rx="130" fill="url(#bg)"/><g opacity=".9" filter="url(#glow)" fill="none" stroke="#ff3500" stroke-width="18"><path d="M80 710C190 590 110 420 250 280"/><path d="M750 930C800 760 900 700 940 500"/><path d="M160 900C330 800 290 700 420 620"/></g><path d="M226 82L780 82Q846 82 846 150L846 492Q846 554 792 582L665 646L850 924L626 924L458 675L407 702L407 924L190 924L190 148Q190 82 226 82Z" fill="url(#edge)"/><path d="M258 125L748 125Q804 125 804 179L804 458Q804 505 763 526L606 608L792 881L649 881L480 630L366 686L366 881L232 881L232 179Q232 125 258 125Z" fill="url(#r)"/><path d="M366 270L645 270Q695 270 695 318L695 410Q695 458 650 472L366 472Z" fill="#230000" stroke="#ff3000" stroke-width="22"/><path d="M365 520L485 520L585 670L475 729Z" fill="#160000" stroke="#ff3000" stroke-width="18"/><g stroke="#ff3b00" stroke-width="8" opacity=".75"><path d="M280 220l90 70m-70 120l100-55m-75 250l80 35m230-340l70-70m-40 180l80 35m-130 300l100 55"/></g><g fill="#ffb000"><circle cx="120" cy="170" r="5"/><circle cx="880" cy="260" r="7"/><circle cx="140" cy="780" r="6"/><circle cx="900" cy="760" r="5"/></g></svg>